# xmcd
#
# Track frame offsets:
#	150
#	39315
#	53616
#	74564
#	90498
#	103527
#	135188
#	152717
#	172339
#	186719
#	204333
#	222686
#
# Disc length: 3220 seconds
#
# Revision: 0
# Processed by: cddbd v1.5.2PL0 Copyright (c) Steve Scherf et al.
# Submitted via: EasyCDDAExtractor 11.9.9.666
#
DISCID=ae0c920c
DTITLE=Tubby Justice - In the Clear Blue Sky
DYEAR=1998
DGENRE=Blues
TTITLE0=data
TTITLE1=fitful
TTITLE2=in the clear blue sky
TTITLE3=and a pin
TTITLE4=just this once
TTITLE5=summer before clocks
TTITLE6=the moment
TTITLE7=belly up
TTITLE8=again for the first time
TTITLE9=the chase
TTITLE10=savage little miracle
TTITLE11=mary isabella
EXTD=
EXTT0=
EXTT1=
EXTT2=
EXTT3=
EXTT4=
EXTT5=
EXTT6=
EXTT7=
EXTT8=
EXTT9=
EXTT10=
EXTT11=
PLAYORDER=
